Coordinates
version=1
nRows=24
nColumns=22
inDegrees=yes

Units are S.I. units (second, meters, Newtons, ...)
If the header above contains a line with 'inDegrees', this indicates whether rotational values are in degrees (yes) or radians (no).

endheader
time	pelvis_tilt	pelvis_list	pelvis_rotation	pelvis_tx	pelvis_ty	pelvis_tz	hip_flexion_r	hip_adduction_r	hip_rotation_r	knee_angle_r	ankle_angle_r	subtalar_angle_r	hip_flexion_l	hip_adduction_l	hip_rotation_l	knee_angle_l	ankle_angle_l	subtalar_angle_l	lumbar_extension	lumbar_bending	lumbar_rotation
      5.60000000	     -3.38024616	     -2.55001905	    -98.40174986	      0.86563042	      1.06431327	      0.43990866	      4.56671424	     13.20498361	    -10.49423353	    -13.03449418	     10.30508269	    -15.41828785	     10.77133355	     -6.18752767	      5.01428144	    -62.32082016	     -2.51183194	     15.47926407	     -5.87824396	      2.02725972	     -5.63023305
      5.61000000	     -3.38304430	     -2.43012322	    -99.58100106	      0.86223158	      1.06465577	      0.44699468	      3.91186577	     13.38640411	     -9.33060330	    -12.71170966	     10.29110887	    -15.42530641	     11.81341427	     -6.40199276	      5.25312103	    -61.91892815	     -1.35175447	     13.79633495	     -5.81643071	      1.85902195	     -5.21978092
      5.62000000	     -3.38070393	     -2.29311340	   -100.76687656	      0.85880597	      1.06493551	      0.45399218	      3.29007788	     13.54427644	     -8.13283771	    -12.42005491	     10.27593369	    -15.41332271	     12.82122348	     -6.63261740	      5.47708227	    -61.33211280	     -0.15618363	     12.06666695	     -5.73197217	      1.69923844	     -4.82152500
      5.63000000	     -3.37333364	     -2.14631641	   -101.96001795	      0.85535391	      1.06516861	      0.46092528	      2.68990346	     13.67934371	     -6.89484030	    -12.15374179	     10.25561662	    -15.38614262	     13.78306169	     -6.87756215	      5.67975317	    -60.56579450	      1.05985613	     10.33813154	     -5.63066689	      1.54899282	     -4.42942574
      5.64000000	     -3.36622750	     -1.99601852	   -103.16324383	      0.85185904	      1.06536389	      0.46780613	      2.09969421	     13.79989748	     -5.60303139	    -11.90902163	     10.22943100	    -15.34848572	     14.68882730	     -7.14056876	      5.85375578	    -59.62795880	      2.27029099	      8.66023225	     -5.51928334	      1.40893344	     -4.03097990
      5.65000000	     -3.35231939	     -1.85017332	   -104.36951406	      0.84836792	      1.06553624	      0.47463621	      1.51464152	     13.89380785	     -4.27994729	    -11.68297048	     10.20047982	    -15.30664005	     15.53334136	     -7.40437045	      5.99882618	    -58.52905329	      3.45226928	      7.08700866	     -5.40947824	      1.27731860	     -3.63908215
      5.66000000	     -3.33256329	     -1.70959212	   -105.58401175	      0.84486738	      1.06569345	      0.48142873	      0.93081023	     13.96398933	     -2.92286867	    -11.47271743	     10.17345209	    -15.26682039	     16.31197902	     -7.66802093	      6.10140094	    -57.27371491	      4.55368200	      5.62526461	     -5.30016329	      1.15171326	     -3.23154757
      5.67000000	     -3.30134658	     -1.57886129	   -106.80817688	      0.84138705	      1.06584255	      0.48817796	      0.35676051	     14.00015445	     -1.54282116	    -11.29916092	     10.14973053	    -15.23602295	     17.02175727	     -7.91224957	      6.16433279	    -55.87478168	      5.55325167	      4.30179566	     -5.19730339	      1.02664671	     -2.81893671
      5.68000000	     -3.25444191	     -1.46006881	   -108.03479420	      0.83793231	      1.06598976	      0.49490422	     -0.21270758	     13.99719226	     -0.15342666	    -11.15056174	     10.14510151	    -15.22263057	     17.66275849	     -8.13005102	      6.17758365	    -54.34041050	      6.42050371	      3.09430227	     -5.09800558	      0.89559518	     -2.39326477
      5.69000000	     -3.18576028	     -1.35318316	   -109.26720223	      0.83451567	      1.06613313	      0.50159261	     -0.76399145	     13.94814630	      1.25444818	    -11.04540404	     10.15471052	    -15.22736407	     18.24146917	     -8.30711432	      6.14292976	    -52.68926755	      7.13614089	      2.05670550	     -5.00341605	      0.75490994	     -1.97496722
      5.70000000	     -3.09643226	     -1.26617134	   -110.49517711	      0.83115541	      1.06627715	      0.50829271	     -1.30592150	     13.84759183	      2.62616757	    -10.97732339	     10.19762603	    -15.25398271	     18.74955909	     -8.43423687	      6.06822294	    -50.93471666	      7.75070878	      1.16585945	     -4.91462357	      0.60264947	     -1.54828993
      5.71000000	     -2.98401914	     -1.19295032	   -111.71649749	      0.82785416	      1.06641133	      0.51499976	     -1.83528362	     13.69789692	      3.99736414	    -10.93488582	     10.27767967	    -15.28986460	     19.20347833	     -8.50666999	      5.95883445	    -49.09772479	      8.22793942	      0.48601083	     -4.82218573	      0.44128839	     -1.13184595
      5.72000000	     -2.84381639	     -1.15104600	   -112.92512617	      0.82463344	      1.06654804	      0.52170483	     -2.34676332	     13.48751534	      5.32953385	    -10.94645760	     10.37923699	    -15.33267617	     19.58917938	     -8.50915622	      5.81593641	    -47.18773214	      8.63892944	     -0.01019563	     -4.74317558	      0.25887402	     -0.75046292
      5.73000000	     -2.67715219	     -1.12801766	   -114.11730692	      0.82150211	      1.06666080	      0.52841724	     -2.83503273	     13.22435491	      6.63793603	    -10.99434515	     10.52127337	    -15.36771466	     19.92760177	     -8.44253270	      5.65444583	    -45.22413781	      8.95123978	     -0.28947877	     -4.66232997	      0.06378298	     -0.39280857
      5.74000000	     -2.44724194	     -1.07592431	   -115.28587017	      0.81849605	      1.06664738	      0.53510686	     -3.20517818	     12.89839502	      7.88568215	    -11.12612823	     10.71329579	    -15.36402879	     20.29565616	     -8.28918321	      5.48057028	    -43.22943805	      9.16280522	     -0.33262607	     -4.51357495	     -0.15594237	     -0.08735434
      5.75000000	     -2.26670874	     -1.14566141	   -116.43500891	      0.81554624	      1.06678986	      0.54185158	     -3.72447397	     12.54789521	      9.15018390	    -11.21950985	     10.90668501	    -15.38874202	     20.47636572	     -8.09424035	      5.30287213	    -41.18514786	      9.27708854	     -0.24341388	     -4.50691168	     -0.36484942	      0.19893047
      5.76000000	     -2.03297266	     -1.17989614	   -117.54724736	      0.81269760	      1.06678140	      0.54858331	     -4.12227084	     12.15323749	     10.32954046	    -11.39062592	     11.14243024	    -15.37093302	     20.69986401	     -7.82561588	      5.13630682	    -39.13399458	      9.27028511	      0.07494918	     -4.42994806	     -0.59503740	      0.42289504
      5.77000000	     -1.79403906	     -1.22313693	   -118.62427454	      0.80991599	      1.06670771	      0.55531652	     -4.48589073	     11.74166406	     11.43813911	    -11.60049094	     11.41253371	    -15.33618697	     20.89565869	     -7.51209836	      4.99622320	    -37.07556648	      9.14980788	      0.59160497	     -4.35508086	     -0.82443301	      0.61991729
      5.78000000	     -1.55332319	     -1.28743361	   -119.64833661	      0.80719338	      1.06658952	      0.56208508	     -4.83856116	     11.31043912	     12.44921810	    -11.82836132	     11.68805914	    -15.29644774	     21.05275816	     -7.15316012	      4.88599466	    -35.01325733	      8.91209762	      1.32754149	     -4.29431908	     -1.05856546	      0.74989250
      5.79000000	     -1.31724262	     -1.35433520	   -120.62929347	      0.80451417	      1.06638514	      0.56887906	     -5.16708317	     10.87617599	     13.37491255	    -12.07768215	     12.00755818	    -15.26238415	     21.18662813	     -6.76968881	      4.80698970	    -32.95995670	      8.61598214	      2.19810100	     -4.23250827	     -1.28326512	      0.84187009
      5.80000000	     -1.08673487	     -1.43375640	   -121.54860421	      0.80189314	      1.06612169	      0.57573778	     -5.49105573	     10.43189375	     14.17864982	    -12.32784247	     12.34243251	    -15.24049709	     21.28390402	     -6.35208764	      4.78674724	    -30.91032115	      8.26308108	      3.20304096	     -4.17894582	     -1.50464451	      0.88533726
      5.81000000	     -0.86517129	     -1.52286649	   -122.40934943	      0.79931242	      1.06579482	      0.58266109	     -5.81668445	      9.98202194	     14.86777074	    -12.57075215	     12.69476926	    -15.22672924	     21.34310639	     -5.90836443	      4.83904598	    -28.87005734	      7.90238288	      4.29864336	     -4.13164699	     -1.71931000	      0.87779050
      5.82000000	     -0.65437637	     -1.61448567	   -123.20871634	      0.79675324	      1.06540117	      0.58965321	     -6.14288237	      9.53339292	     15.44156937	    -12.80128938	     13.05609831	    -15.21343830	     21.36548711	     -5.44568306	      4.98878449	    -26.83895920	      7.57022029	      5.43507178	     -4.08564646	     -1.92390905	      0.83084749
      5.83000000	     -0.45379133	     -1.70470701	   -123.95971892	      0.79417164	      1.06493819	      0.59668597	     -6.46987058	      9.08918837	     15.92440318	    -13.01825570	     13.41488518	    -15.19551208	     21.34971268	     -4.97538350	      5.24844071	    -24.81881388	      7.29628219	      6.57026114	     -4.03506887	     -2.12215132	      0.74288003
